G04 (created by PCBNEW-RS274X (2012-01-19 BZR 3256)-stable) date 11/11/2013 9:04:22 PM*
G01*
G70*
G90*
%MOIN*%
G04 Gerber Fmt 3.4, Leading zero omitted, Abs format*
%FSLAX34Y34*%
G04 APERTURE LIST*
%ADD10C,0.006000*%
%ADD11C,0.075000*%
%ADD12R,0.080000X0.080000*%
%ADD13C,0.080000*%
%ADD14C,0.076000*%
%ADD15R,0.075000X0.075000*%
%ADD16C,0.090000*%
%ADD17R,0.090000X0.090000*%
%ADD18C,0.126300*%
%ADD19C,0.270000*%
G04 APERTURE END LIST*
G54D10*
G54D11*
X70000Y-39710D03*
X70000Y-42710D03*
X50690Y-42400D03*
X50690Y-45400D03*
X69070Y-39710D03*
X69070Y-42710D03*
X68140Y-39710D03*
X68140Y-42710D03*
X70950Y-39710D03*
X70950Y-42710D03*
G54D12*
X47720Y-36200D03*
G54D13*
X48720Y-36200D03*
X49720Y-36200D03*
G54D12*
X82500Y-38500D03*
G54D13*
X82500Y-37500D03*
G54D12*
X82500Y-45000D03*
G54D13*
X82500Y-44000D03*
G54D12*
X52730Y-36080D03*
G54D13*
X53730Y-36080D03*
G54D14*
X62200Y-45250D03*
X60200Y-45250D03*
G54D11*
X53700Y-42750D03*
X54700Y-42750D03*
X55700Y-42750D03*
X56700Y-42750D03*
X57700Y-42750D03*
X58700Y-42750D03*
X59700Y-42750D03*
X60700Y-42750D03*
X61700Y-42750D03*
X62700Y-42750D03*
X63700Y-42750D03*
X64700Y-42750D03*
X65700Y-42750D03*
G54D15*
X52700Y-42750D03*
G54D11*
X65700Y-39750D03*
X64700Y-39750D03*
X63700Y-39750D03*
X62700Y-39750D03*
X61700Y-39750D03*
X60700Y-39750D03*
X59700Y-39750D03*
X58700Y-39750D03*
X57700Y-39750D03*
X56700Y-39750D03*
X55700Y-39750D03*
X54700Y-39750D03*
X53700Y-39750D03*
X52700Y-39750D03*
G54D15*
X73700Y-42750D03*
G54D11*
X74700Y-42750D03*
X75700Y-42750D03*
X76700Y-42750D03*
X77700Y-42750D03*
X78700Y-42750D03*
X79700Y-42750D03*
X80700Y-42750D03*
X80700Y-39750D03*
X79700Y-39750D03*
X78700Y-39750D03*
X77700Y-39750D03*
X76700Y-39750D03*
X75700Y-39750D03*
X74700Y-39750D03*
X73700Y-39750D03*
G54D15*
X48830Y-37660D03*
G54D11*
X45830Y-37660D03*
X49520Y-40280D03*
X49520Y-39280D03*
X43900Y-40420D03*
X42900Y-40420D03*
X43900Y-43760D03*
X43900Y-42760D03*
X59500Y-37800D03*
X58500Y-37800D03*
X56780Y-45260D03*
X56780Y-46260D03*
X60900Y-37800D03*
X61900Y-37800D03*
X57940Y-45250D03*
X57940Y-46250D03*
X64360Y-45250D03*
X64360Y-46250D03*
X42850Y-38290D03*
X42850Y-37290D03*
X44310Y-35690D03*
X44310Y-36690D03*
X73700Y-38370D03*
X73700Y-37370D03*
X48550Y-43660D03*
X49550Y-43660D03*
X49690Y-46340D03*
X48690Y-46340D03*
X43890Y-45950D03*
X43890Y-44950D03*
G54D16*
X37500Y-36500D03*
G54D17*
X38500Y-36500D03*
G54D16*
X39500Y-36500D03*
G54D11*
X42519Y-44250D03*
X42861Y-43310D03*
X42677Y-45660D03*
X42103Y-46480D03*
X82840Y-40790D03*
X82840Y-41790D03*
G54D12*
X55280Y-36680D03*
G54D13*
X55280Y-35680D03*
X56280Y-36680D03*
X56280Y-35680D03*
X57280Y-36680D03*
X57280Y-35680D03*
X58280Y-36680D03*
X58280Y-35680D03*
G54D12*
X64110Y-36680D03*
G54D13*
X64110Y-35680D03*
X65110Y-36680D03*
X65110Y-35680D03*
X66110Y-36680D03*
X66110Y-35680D03*
X67110Y-36680D03*
X67110Y-35680D03*
G54D12*
X69780Y-46120D03*
G54D13*
X68780Y-46120D03*
X67780Y-46120D03*
X66780Y-46120D03*
G54D16*
X74950Y-45700D03*
G54D17*
X73950Y-45700D03*
G54D16*
X72950Y-45700D03*
G54D11*
X77740Y-46110D03*
X78740Y-46110D03*
X69780Y-44320D03*
X68780Y-44320D03*
G54D13*
X40850Y-41500D03*
X40850Y-40500D03*
X40063Y-40500D03*
X40063Y-41500D03*
G54D18*
X39000Y-43362D03*
X39000Y-38638D03*
G54D19*
X54000Y-45500D03*
X76500Y-36500D03*
M02*
