M48
INCH,TZ
T1C0.025
T2C0.030
T3C0.032
T4C0.040
T5C0.045
T6C0.091
T7C0.125
%
G90
G05
T1
X44570Y-40090
X44570Y-40790
X44570Y-41990
X46490Y-40530
X47110Y-45070
X47510Y-45420
X49240Y-42000
X49610Y-37340
X49700Y-41110
X50690Y-39120
X57850Y-41580
X58760Y-44610
X61190Y-40430
X61550Y-41225
X64190Y-40510
X66780Y-44070
X67100Y-41570
X67200Y-38000
X70800Y-37600
X71340Y-38440
X72110Y-40180
X72120Y-41310
X72860Y-39960
X72860Y-41310
T2
X60200Y-45250
X62200Y-45250
T3
X37270Y-45370
X38270Y-45370
X40063Y-40500
X40063Y-41500
X40240Y-45360
X40850Y-40500
X40850Y-41500
X41240Y-45360
X42103Y-46480
X42519Y-44250
X42677Y-45660
X42850Y-37290
X42850Y-38290
X42861Y-43310
X42900Y-40420
X43890Y-44950
X43890Y-45950
X43900Y-40420
X43900Y-42760
X43900Y-43760
X44310Y-35690
X44310Y-36690
X45830Y-37660
X48550Y-43660
X48690Y-46340
X48830Y-37660
X49520Y-39280
X49520Y-40280
X49550Y-43660
X49690Y-46340
X50690Y-42400
X50690Y-45400
X51740Y-43690
X51740Y-44690
X52700Y-39750
X52700Y-42750
X53700Y-39750
X53700Y-42750
X54700Y-39750
X54700Y-42750
X55700Y-39750
X55700Y-42750
X56700Y-39750
X56700Y-42750
X56780Y-45260
X56780Y-46260
X57700Y-39750
X57700Y-42750
X57940Y-45250
X57940Y-46250
X58500Y-37800
X58700Y-39750
X58700Y-42750
X59500Y-37800
X59700Y-39750
X59700Y-42750
X60700Y-39750
X60700Y-42750
X60900Y-37800
X61700Y-39750
X61700Y-42750
X61900Y-37800
X62700Y-39750
X62700Y-42750
X63700Y-39750
X63700Y-42750
X64360Y-45250
X64360Y-46250
X64700Y-39750
X64700Y-42750
X65700Y-39750
X65700Y-42750
X68140Y-39710
X68140Y-42710
X68780Y-44320
X69070Y-39710
X69070Y-42710
X69780Y-44320
X70000Y-39710
X70000Y-42710
X70950Y-39710
X70950Y-42710
X73700Y-37370
X73700Y-38370
X73700Y-39750
X73700Y-42750
X74700Y-39750
X74700Y-42750
X75700Y-39750
X75700Y-42750
X76700Y-39750
X76700Y-42750
X77700Y-39750
X77700Y-42750
X77740Y-46110
X78700Y-39750
X78700Y-42750
X78740Y-46110
X79700Y-39750
X79700Y-42750
X80700Y-39750
X80700Y-42750
X82840Y-40790
X82840Y-41790
T4
X47720Y-36200
X48720Y-36200
X49720Y-36200
X52730Y-36080
X53730Y-36080
X55280Y-35680
X55280Y-36680
X56280Y-35680
X56280Y-36680
X57280Y-35680
X57280Y-36680
X58280Y-35680
X58280Y-36680
X64110Y-35680
X64110Y-36680
X65110Y-35680
X65110Y-36680
X66110Y-35680
X66110Y-36680
X66780Y-46120
X67110Y-35680
X67110Y-36680
X67780Y-46120
X68780Y-46120
X69780Y-46120
X82500Y-37500
X82500Y-38500
X82500Y-44000
X82500Y-45000
T5
X37500Y-36500
X38500Y-36500
X39500Y-36500
X72950Y-45700
X73950Y-45700
X74950Y-45700
T6
X39000Y-38638
X39000Y-43362
T7
X54000Y-45500
X76500Y-36500
T0
M30
